<?xml version="1.0" encoding="UTF-8" standalone="no"?>
<!-- Generator: Adobe Illustrator 19.0.0, SVG Export Plug-In . SVG Version: 6.00 Build 0)  -->

<svg
   xmlns:dc="http://purl.org/dc/elements/1.1/"
   xmlns:cc="http://creativecommons.org/ns#"
   xmlns:rdf="http://www.w3.org/1999/02/22-rdf-syntax-ns#"
   xmlns:svg="http://www.w3.org/2000/svg"
   xmlns="http://www.w3.org/2000/svg"
   xmlns:sodipodi="http://sodipodi.sourceforge.net/DTD/sodipodi-0.dtd"
   xmlns:inkscape="http://www.inkscape.org/namespaces/inkscape"
   version="1.1"
   id="Capa_1"
   x="0px"
   y="0px"
   viewBox="0 0 400.48694 280.18869"
   xml:space="preserve"
   sodipodi:docname="mail.svg"
   inkscape:version="0.92.3 (2405546, 2018-03-11)"
   width="400.48694"
   height="280.18869"><metadata
   id="metadata50"><rdf:RDF><cc:Work
       rdf:about=""><dc:format>image/svg+xml</dc:format><dc:type
         rdf:resource="http://purl.org/dc/dcmitype/StillImage" /><dc:title></dc:title></cc:Work></rdf:RDF></metadata><defs
   id="defs48" /><sodipodi:namedview
   pagecolor="#ffffff"
   bordercolor="#666666"
   borderopacity="1"
   objecttolerance="10"
   gridtolerance="10"
   guidetolerance="10"
   inkscape:pageopacity="0"
   inkscape:pageshadow="2"
   inkscape:window-width="1920"
   inkscape:window-height="1017"
   id="namedview46"
   showgrid="false"
   inkscape:zoom="2.12"
   inkscape:cx="223.33769"
   inkscape:cy="138.44188"
   inkscape:window-x="-8"
   inkscape:window-y="-8"
   inkscape:window-maximized="1"
   inkscape:current-layer="Capa_1"
   fit-margin-top="0"
   fit-margin-left="0"
   fit-margin-right="0"
   fit-margin-bottom="0" />
<g
   id="XMLID_1_"
   transform="translate(0.25109023,-59.95283)">
	<polygon
   id="XMLID_869_"
   points="104.8,206.1 0,127.5 0,274.219 " />
	<polygon
   id="XMLID_870_"
   points="295.2,206.1 400,274.219 400,127.5 " />
	<polygon
   id="XMLID_871_"
   points="0,310 0,340 400,340 400,310 269.643,225.268 200,277.5 130.357,225.268 " />
	<polygon
   id="XMLID_872_"
   points="400,90 400,60 0,60 0,90 200,240 " />
</g>
<g
   id="g15"
   transform="translate(0.25109023,-59.95283)">
</g>
<g
   id="g17"
   transform="translate(0.25109023,-59.95283)">
</g>
<g
   id="g19"
   transform="translate(0.25109023,-59.95283)">
</g>
<g
   id="g21"
   transform="translate(0.25109023,-59.95283)">
</g>
<g
   id="g23"
   transform="translate(0.25109023,-59.95283)">
</g>
<g
   id="g25"
   transform="translate(0.25109023,-59.95283)">
</g>
<g
   id="g27"
   transform="translate(0.25109023,-59.95283)">
</g>
<g
   id="g29"
   transform="translate(0.25109023,-59.95283)">
</g>
<g
   id="g31"
   transform="translate(0.25109023,-59.95283)">
</g>
<g
   id="g33"
   transform="translate(0.25109023,-59.95283)">
</g>
<g
   id="g35"
   transform="translate(0.25109023,-59.95283)">
</g>
<g
   id="g37"
   transform="translate(0.25109023,-59.95283)">
</g>
<g
   id="g39"
   transform="translate(0.25109023,-59.95283)">
</g>
<g
   id="g41"
   transform="translate(0.25109023,-59.95283)">
</g>
<g
   id="g43"
   transform="translate(0.25109023,-59.95283)">
</g>
<path
   style="opacity:0.981;fill:#872916;fill-opacity:1;stroke:#d7d7f4;stroke-width:0.47169811"
   d="M 100.22976,104.7012 0.48693929,29.894467 0.36238877,15.065158 0.23783825,0.23584905 H 200.24446 400.25109 V 14.976812 29.717774 l -99.56806,74.675896 c -54.76244,41.07174 -99.8251,74.77452 -100.13926,74.89508 -0.31416,0.12055 -45.45547,-33.44384 -100.31401,-74.58755 z"
   id="path4562"
   inkscape:connector-curvature="0" /><path
   style="opacity:0.981;fill:#872916;fill-opacity:1;stroke:#d7d7f4;stroke-width:0.47169811"
   d="M 0.57260316,140.76108 V 68.07876 L 2.3855553,69.41674 C 16.854948,80.0953 104.31083,145.83135 104.32577,146.03991 104.34647,146.32892 1.289149,213.4434 0.82465826,213.4434 c -0.13863029,0 -0.2520551,-32.70705 -0.2520551,-72.68232 z"
   id="path4564"
   inkscape:connector-curvature="0" /><path
   style="opacity:0.981;fill:#872916;fill-opacity:1;stroke:#d7d7f4;stroke-width:0.47169811"
   d="M 0.59725571,264.97642 0.62190826,250 64.555343,208.49057 C 99.71873,185.66038 128.98334,166.6768 129.5878,166.30484 c 1.05952,-0.65197 2.34765,0.26021 35.82557,25.36956 21.48786,16.11647 34.94389,25.91417 35.29666,25.70044 0.31357,-0.18997 15.81512,-11.7779 34.44789,-25.75096 18.63278,-13.97306 34.13318,-25.50357 34.44534,-25.62336 0.31216,-0.11979 29.74877,18.74928 65.41468,41.93126 l 64.84712,42.14905 0.12455,14.936 0.12454,14.936 H 200.34338 0.57260316 Z"
   id="path4566"
   inkscape:connector-curvature="0" /><path
   style="opacity:0.981;fill:#872916;fill-opacity:1;stroke:#d7d7f4;stroke-width:0.47169811"
   d="m 351.75185,182.42692 c -26.46227,-17.20836 -49.87141,-32.41486 -52.02032,-33.79223 l -3.90711,-2.50431 52.02032,-39.01407 52.02032,-39.01408 0.12082,36.62277 c 0.0665,20.14253 0.0665,52.90536 0,72.80631 l -0.12082,36.18353 z"
   id="path4568"
   inkscape:connector-curvature="0" /></svg>